<?xml version="1.0" standalone="no"?>
<!DOCTYPE svg PUBLIC "-//W3C//DTD SVG 20010904//EN"
 "http://www.w3.org/TR/2001/REC-SVG-20010904/DTD/svg10.dtd">
<svg version="1.0" xmlns="http://www.w3.org/2000/svg"
 width="512.000000pt" height="512.000000pt" viewBox="0 0 512.000000 512.000000"
 preserveAspectRatio="xMidYMid meet">
<metadata>
Created by potrace 1.14, written by Peter Selinger 2001-2017
</metadata>
<g transform="translate(0.000000,512.000000) scale(0.100000,-0.100000)"
fill="#000000" stroke="none">
<path d="M2310 4280 c-537 -74 -995 -353 -1281 -779 -174 -258 -266 -527 -288
-841 -21 -296 27 -563 149 -817 183 -382 463 -659 852 -843 517 -243 1136
-241 1658 6 528 251 895 735 976 1287 24 164 15 450 -19 607 -48 218 -133 418
-258 606 -104 155 -313 364 -469 467 -210 138 -431 232 -673 283 -107 23 -151
26 -352 29 -126 2 -259 0 -295 -5z m445 -240 c545 -78 924 -489 1036 -1125 27
-153 37 -484 19 -635 -44 -381 -171 -673 -388 -887 -167 -166 -363 -266 -617
-315 -102 -19 -397 -17 -503 5 -379 77 -652 284 -820 623 -119 238 -172 489
-172 816 0 337 55 606 175 853 78 159 125 227 244 346 189 188 377 278 671
323 54 8 289 5 355 -4z"/>
</g>
</svg>
